<?xml version="1.0" encoding="utf-8"?>
<!-- Generator: Adobe Illustrator 17.0.0, SVG Export Plug-In . SVG Version: 6.00 Build 0)  -->
<!DOCTYPE svg PUBLIC "-//W3C//DTD SVG 1.1//EN" "http://www.w3.org/Graphics/SVG/1.1/DTD/svg11.dtd">
<svg version="1.1" id="sass-lab-logo-test-by-tonytian"
	 xmlns="http://www.w3.org/2000/svg" xmlns:xlink="http://www.w3.org/1999/xlink" x="0px" y="0px" width="128px" height="32px"
	 viewBox="0 0 128 32" enable-background="new 0 0 128 32" xml:space="preserve">
<g>
	<path fill="#FFFFFF" d="M22.821,12.594l-1.137,0.238c-0.088-1.04-0.326-1.951-0.713-2.736c-0.388-0.784-0.89-1.436-1.507-1.956
		s-1.321-0.907-2.114-1.163c-0.793-0.255-1.63-0.383-2.511-0.383c-0.934,0-1.727,0.084-2.379,0.251
		c-0.652,0.168-1.176,0.401-1.573,0.701c-0.396,0.3-0.683,0.661-0.859,1.083s-0.264,0.89-0.264,1.401
		c0,0.688,0.198,1.234,0.595,1.639c0.396,0.406,0.92,0.731,1.573,0.978c0.651,0.247,1.396,0.441,2.233,0.582
		c0.836,0.141,1.687,0.291,2.55,0.449s1.714,0.353,2.551,0.582s1.582,0.555,2.233,0.978s1.176,0.974,1.573,1.652
		c0.396,0.679,0.595,1.538,0.595,2.577c0,1.058-0.176,1.969-0.529,2.735s-0.859,1.397-1.52,1.891
		c-0.661,0.493-1.467,0.854-2.418,1.083c-0.952,0.229-2.018,0.344-3.198,0.344c-1.057,0-2.013-0.137-2.868-0.409
		c-0.855-0.273-1.679-0.691-2.472-1.256c-0.3-0.193-0.546-0.291-0.74-0.291c-0.229,0-0.415,0.071-0.555,0.212
		c-0.141,0.141-0.264,0.335-0.37,0.581l-0.317,0.74H7.543V17.59l1.137-0.158c0.088,0.916,0.326,1.771,0.713,2.563
		c0.387,0.793,0.903,1.48,1.546,2.062c0.643,0.582,1.405,1.04,2.286,1.375c0.881,0.335,1.868,0.502,2.96,0.502
		c3.63,0,5.445-1.308,5.445-3.923c0-0.725-0.198-1.294-0.595-1.709s-0.921-0.742-1.573-0.98c-0.652-0.239-1.392-0.424-2.22-0.557
		c-0.829-0.132-1.678-0.274-2.551-0.424c-0.872-0.15-1.722-0.335-2.55-0.557c-0.829-0.22-1.569-0.552-2.22-0.994
		c-0.652-0.442-1.176-1.021-1.573-1.736c-0.396-0.716-0.595-1.63-0.595-2.744c0-0.636,0.105-1.272,0.317-1.909
		c0.212-0.636,0.582-1.206,1.11-1.709c0.529-0.503,1.233-0.91,2.115-1.219c0.881-0.309,2-0.464,3.356-0.464
		c1.075,0,2.009,0.117,2.802,0.35s1.56,0.564,2.3,0.994c0.334,0.215,0.661,0.322,0.978,0.322c0.353,0,0.635-0.167,0.846-0.502
		l0.449-0.714h0.793v7.135H22.821z"/>
	<path fill="#FFFFFF" d="M38.388,22.878c0,0.791,0.265,1.187,0.793,1.187c0.247,0,0.436-0.123,0.568-0.369
		c0.132-0.247,0.198-0.52,0.198-0.82v-1.797h0.952v1.533c0,0.898-0.155,1.568-0.463,2.009s-0.885,0.66-1.731,0.66
		c-0.406,0-0.749-0.079-1.031-0.237c-0.282-0.159-0.507-0.365-0.674-0.621s-0.295-0.542-0.383-0.859s-0.15-0.634-0.185-0.951
		c-0.211,0.388-0.512,0.758-0.899,1.11c-0.388,0.353-0.842,0.665-1.361,0.938c-0.52,0.273-1.088,0.489-1.705,0.648
		c-0.617,0.158-1.26,0.237-1.93,0.237c-1.691,0-2.925-0.34-3.7-1.018c-0.776-0.678-1.163-1.625-1.163-2.841
		c0-0.705,0.154-1.3,0.462-1.784s0.727-0.89,1.256-1.216c0.528-0.326,1.136-0.591,1.824-0.793c0.687-0.203,1.409-0.379,2.167-0.529
		c0.758-0.149,1.529-0.286,2.313-0.409c0.784-0.123,1.537-0.273,2.26-0.45v-0.819c0-1.004-0.264-1.833-0.793-2.484
		c-0.528-0.652-1.357-0.978-2.484-0.978c-1.075,0-1.969,0.115-2.683,0.344s-1.247,0.511-1.599,0.846
		c0.352,0.036,0.661,0.172,0.925,0.41c0.265,0.238,0.396,0.542,0.396,0.912c0,0.44-0.141,0.806-0.423,1.097
		s-0.679,0.436-1.189,0.436c-0.511,0-0.903-0.149-1.176-0.449c-0.273-0.299-0.41-0.696-0.41-1.189c0-0.387,0.132-0.793,0.396-1.216
		c0.265-0.423,0.656-0.802,1.176-1.137c0.52-0.334,1.154-0.612,1.903-0.833c0.749-0.22,1.616-0.33,2.604-0.33
		c0.81,0,1.568,0.075,2.273,0.224c0.705,0.149,1.317,0.405,1.837,0.765c0.52,0.361,0.929,0.853,1.229,1.478
		c0.299,0.625,0.449,1.411,0.449,2.36L38.388,22.878L38.388,22.878z M35.983,17.431c-1.392,0.282-2.59,0.551-3.595,0.806
		c-1.004,0.256-1.833,0.533-2.484,0.833s-1.132,0.647-1.44,1.044c-0.309,0.396-0.462,0.877-0.462,1.44
		c0,0.811,0.286,1.414,0.859,1.811c0.572,0.396,1.396,0.595,2.471,0.595c0.546,0,1.062-0.065,1.546-0.198
		c0.484-0.132,0.929-0.304,1.335-0.516c0.405-0.211,0.757-0.453,1.057-0.727c0.299-0.272,0.537-0.542,0.713-0.806V17.431z"/>
	<path fill="#FFFFFF" d="M53.771,16.69l-0.978,0.185c-0.159-1.427-0.674-2.515-1.546-3.264c-0.873-0.749-2.058-1.124-3.555-1.124
		c-0.793,0-1.476,0.159-2.048,0.476c-0.573,0.317-0.859,0.828-0.859,1.533c0,0.652,0.233,1.141,0.701,1.467
		c0.467,0.326,1.057,0.586,1.771,0.78c0.713,0.194,1.48,0.361,2.299,0.502s1.586,0.356,2.3,0.647c0.713,0.29,1.304,0.7,1.771,1.229
		s0.701,1.269,0.701,2.221c0,1.269-0.428,2.237-1.282,2.907c-0.855,0.67-2.111,1.004-3.767,1.004c-0.846,0-1.625-0.092-2.339-0.277
		c-0.713-0.185-1.334-0.497-1.863-0.938c-0.124-0.088-0.26-0.18-0.41-0.277s-0.287-0.146-0.41-0.146
		c-0.141,0-0.238,0.04-0.291,0.119c-0.053,0.079-0.097,0.216-0.132,0.41l-0.185,0.951h-0.952v-5.418l0.952-0.159
		c0.088,0.705,0.295,1.344,0.621,1.916c0.326,0.573,0.735,1.066,1.229,1.48c0.493,0.414,1.057,0.731,1.691,0.951
		c0.635,0.221,1.304,0.331,2.009,0.331c1.11,0,1.907-0.207,2.392-0.62c0.484-0.413,0.727-0.945,0.727-1.596
		c0-0.492-0.137-0.888-0.41-1.188c-0.273-0.299-0.634-0.54-1.084-0.725c-0.449-0.185-0.96-0.334-1.533-0.448
		s-1.159-0.237-1.758-0.369s-1.185-0.286-1.758-0.462s-1.083-0.418-1.533-0.726s-0.811-0.698-1.084-1.174
		c-0.273-0.475-0.41-1.082-0.41-1.82c0-1.161,0.414-2.066,1.243-2.717c0.828-0.65,2.043-0.976,3.647-0.976
		c0.651,0,1.334,0.105,2.048,0.317c0.713,0.211,1.291,0.485,1.731,0.819c0.141,0.124,0.287,0.229,0.437,0.317
		c0.149,0.088,0.295,0.132,0.436,0.132c0.176,0,0.299-0.132,0.37-0.396l0.132-0.925h0.978v5.051H53.771z"/>
	<path fill="#FFFFFF" d="M67.463,16.69l-0.979,0.185c-0.158-1.427-0.674-2.515-1.547-3.264c-0.871-0.749-2.057-1.124-3.554-1.124
		c-0.793,0-1.476,0.159-2.048,0.476c-0.573,0.317-0.859,0.828-0.859,1.533c0,0.652,0.233,1.141,0.701,1.467
		c0.467,0.326,1.057,0.586,1.771,0.78c0.713,0.194,1.48,0.361,2.299,0.502c0.82,0.141,1.585,0.356,2.3,0.647
		c0.713,0.29,1.303,0.7,1.77,1.229s0.701,1.269,0.701,2.221c0,1.269-0.428,2.237-1.281,2.907c-0.855,0.67-2.111,1.004-3.767,1.004
		c-0.846,0-1.625-0.092-2.339-0.277c-0.713-0.185-1.334-0.497-1.863-0.938c-0.124-0.088-0.26-0.18-0.41-0.277
		s-0.287-0.146-0.41-0.146c-0.141,0-0.238,0.04-0.291,0.119c-0.053,0.079-0.097,0.216-0.132,0.41l-0.185,0.951h-0.952v-5.418
		l0.952-0.159c0.088,0.705,0.295,1.344,0.621,1.916c0.326,0.573,0.735,1.066,1.229,1.48c0.493,0.414,1.057,0.731,1.691,0.951
		c0.635,0.221,1.304,0.331,2.009,0.331c1.11,0,1.907-0.207,2.392-0.62s0.727-0.945,0.727-1.596c0-0.492-0.137-0.888-0.408-1.188
		c-0.273-0.299-0.635-0.54-1.084-0.725s-0.961-0.334-1.533-0.448c-0.573-0.114-1.159-0.237-1.758-0.369s-1.185-0.286-1.758-0.462
		s-1.083-0.418-1.533-0.726s-0.811-0.698-1.084-1.174c-0.273-0.475-0.41-1.082-0.41-1.82c0-1.161,0.414-2.066,1.243-2.717
		c0.828-0.65,2.043-0.976,3.647-0.976c0.651,0,1.334,0.105,2.048,0.317c0.713,0.211,1.291,0.485,1.73,0.819
		c0.141,0.124,0.287,0.229,0.438,0.317c0.148,0.088,0.295,0.132,0.436,0.132c0.176,0,0.299-0.132,0.369-0.396l0.133-0.925h0.979
		v5.051H67.463z"/>
	<path fill="#FFFFFF" d="M77.188,18.382h-7.427v-1.718h7.427V18.382z"/>
	<path fill="#FFFFFF" d="M83.664,22.984c0,0.791,0.784,1.187,2.353,1.187v0.925H78.96v-0.925c1.55,0,2.325-0.396,2.325-1.188V6.804
		c0-0.792-0.775-1.188-2.325-1.188V4.77h4.704V22.984z"/>
	<path fill="#FFFFFF" d="M100.766,22.878c0,0.791,0.265,1.187,0.793,1.187c0.247,0,0.437-0.123,0.568-0.369
		c0.132-0.247,0.198-0.52,0.198-0.82v-1.797h0.951v1.533c0,0.898-0.154,1.568-0.462,2.009c-0.309,0.44-0.886,0.66-1.731,0.66
		c-0.405,0-0.749-0.079-1.031-0.237c-0.281-0.159-0.507-0.365-0.674-0.621c-0.168-0.256-0.295-0.542-0.383-0.859
		c-0.089-0.317-0.15-0.634-0.186-0.951c-0.211,0.388-0.511,0.758-0.898,1.11s-0.842,0.665-1.361,0.938
		c-0.52,0.273-1.088,0.489-1.705,0.648c-0.616,0.158-1.26,0.237-1.929,0.237c-1.692,0-2.926-0.34-3.701-1.018
		s-1.162-1.625-1.162-2.841c0-0.705,0.153-1.3,0.462-1.784s0.728-0.89,1.256-1.216s1.137-0.591,1.823-0.793
		c0.688-0.203,1.41-0.379,2.168-0.529c0.757-0.149,1.528-0.286,2.312-0.409s1.537-0.273,2.26-0.45v-0.819
		c0-1.004-0.265-1.833-0.793-2.484s-1.357-0.978-2.484-0.978c-1.075,0-1.969,0.115-2.683,0.344s-1.247,0.511-1.6,0.846
		c0.353,0.036,0.661,0.172,0.926,0.41c0.264,0.238,0.396,0.542,0.396,0.912c0,0.44-0.142,0.806-0.423,1.097
		c-0.282,0.291-0.679,0.436-1.189,0.436c-0.512,0-0.903-0.149-1.177-0.449c-0.273-0.299-0.409-0.696-0.409-1.189
		c0-0.387,0.132-0.793,0.396-1.216c0.264-0.423,0.656-0.802,1.176-1.137c0.52-0.334,1.154-0.612,1.903-0.833
		c0.749-0.22,1.616-0.33,2.604-0.33c0.81,0,1.568,0.075,2.272,0.224c0.705,0.149,1.317,0.405,1.837,0.765
		c0.52,0.361,0.93,0.853,1.229,1.478s0.449,1.411,0.449,2.36v6.935H100.766z M98.36,17.431c-1.392,0.282-2.59,0.551-3.595,0.806
		c-1.004,0.256-1.833,0.533-2.484,0.833c-0.652,0.3-1.133,0.647-1.44,1.044c-0.309,0.396-0.463,0.877-0.463,1.44
		c0,0.811,0.286,1.414,0.859,1.811c0.572,0.396,1.396,0.595,2.472,0.595c0.546,0,1.061-0.065,1.546-0.198
		c0.484-0.132,0.929-0.304,1.335-0.516c0.405-0.211,0.757-0.453,1.057-0.727c0.3-0.272,0.538-0.542,0.714-0.806L98.36,17.431
		L98.36,17.431z"/>
	<path fill="#FFFFFF" d="M108.854,13.175c0.353-0.617,0.916-1.114,1.691-1.494c0.775-0.378,1.691-0.568,2.749-0.568
		c0.881,0,1.727,0.105,2.537,0.317s1.528,0.586,2.154,1.124c0.625,0.538,1.123,1.26,1.493,2.167c0.37,0.908,0.556,2.058,0.556,3.45
		c0,1.463-0.189,2.669-0.568,3.621c-0.379,0.951-0.886,1.705-1.52,2.26c-0.635,0.555-1.375,0.942-2.221,1.163
		c-0.846,0.22-1.744,0.33-2.696,0.33c-0.74,0-1.4-0.105-1.982-0.317c-0.581-0.211-1.074-0.471-1.479-0.779
		c-0.406-0.309-0.728-0.63-0.965-0.965c-0.238-0.335-0.384-0.625-0.437-0.872l-0.846,2.484h-0.898V6.805
		c0-0.793-0.775-1.189-2.326-1.189V4.77h4.758L108.854,13.175L108.854,13.175z M113.109,12.224c-0.847,0-1.556,0.167-2.128,0.502
		c-0.573,0.334-1.04,0.779-1.401,1.334s-0.617,1.203-0.767,1.943c-0.15,0.74-0.225,1.515-0.225,2.326s0.075,1.586,0.225,2.326
		s0.405,1.388,0.767,1.942c0.361,0.556,0.828,1.001,1.401,1.335c0.572,0.335,1.281,0.502,2.128,0.502
		c0.846,0,1.559-0.167,2.141-0.502c0.581-0.334,1.053-0.779,1.414-1.335c0.36-0.555,0.625-1.202,0.793-1.942
		c0.167-0.74,0.251-1.516,0.251-2.326s-0.084-1.585-0.251-2.326c-0.168-0.74-0.433-1.388-0.793-1.943
		c-0.361-0.555-0.833-1-1.414-1.334C114.668,12.391,113.955,12.224,113.109,12.224z"/>
</g>
</svg>
